<svg width="154" height="32" viewBox="0 0 154 32" fill="none" xmlns="http://www.w3.org/2000/svg">
<path d="M35.6363 23.2158V8.76526H37.3193V14.962C37.6508 14.35 38.1268 13.8654 38.7474 13.5254C39.3594 13.1854 40.0309 13.0154 40.7534 13.0154C41.901 13.0154 42.8275 13.3724 43.5245 14.0864C44.2216 14.8005 44.5701 15.9055 44.5701 17.3846V23.1988H42.904V17.5631C42.904 15.489 42.071 14.452 40.3964 14.452C39.5294 14.452 38.7984 14.7665 38.2118 15.387C37.6253 16.0075 37.3278 16.8915 37.3278 18.0476V23.2073H35.6363V23.2158Z" fill="white"/>
<path d="M49.4237 23.4538C48.5907 23.4538 47.9022 23.3093 47.3582 23.0288C46.8057 22.7483 46.3976 22.3743 46.1341 21.9068C45.8706 21.4393 45.7346 20.9292 45.7346 20.3852C45.7346 19.3652 46.1256 18.5832 46.8992 18.0391C47.6727 17.4866 48.7352 17.2146 50.0698 17.2146H52.7559V17.0956C52.7559 16.2286 52.5264 15.5656 52.0758 15.1235C51.6168 14.673 51.0133 14.452 50.2483 14.452C49.5938 14.452 49.0242 14.6135 48.5567 14.945C48.0807 15.2765 47.7832 15.7526 47.6642 16.3816H45.9386C46.0066 15.6591 46.2531 15.047 46.6697 14.554C47.0947 14.061 47.6132 13.6785 48.2422 13.4235C48.8712 13.16 49.5427 13.0325 50.2483 13.0325C51.6423 13.0325 52.6879 13.4065 53.3849 14.146C54.0904 14.8855 54.4389 15.8716 54.4389 17.1041V23.2243H52.9344L52.8324 21.4393C52.5519 22.0003 52.1438 22.4763 51.5998 22.8758C51.0558 23.2583 50.3333 23.4538 49.4237 23.4538ZM49.6788 22.0258C50.3248 22.0258 50.8688 21.8558 51.3363 21.5243C51.7953 21.1928 52.1523 20.7592 52.3903 20.2237C52.6284 19.6882 52.7474 19.1272 52.7474 18.5407V18.5237H50.1973C49.2112 18.5237 48.5057 18.6937 48.0977 19.0337C47.6897 19.3737 47.4857 19.7987 47.4857 20.3087C47.4857 20.8272 47.6727 21.2523 48.0552 21.5668C48.4462 21.8728 48.9817 22.0258 49.6788 22.0258Z" fill="white"/>
<path d="M55.9604 23.2158V8.76526H57.6435V23.2073H55.9604V23.2158Z" fill="white"/>
<path d="M62.7182 23.4538C61.8851 23.4538 61.1966 23.3093 60.6526 23.0288C60.1001 22.7483 59.6921 22.3743 59.4286 21.9068C59.1651 21.4393 59.0291 20.9292 59.0291 20.3852C59.0291 19.3652 59.4201 18.5832 60.1936 18.0391C60.9671 17.4866 62.0297 17.2146 63.3642 17.2146H66.0503V17.0956C66.0503 16.2286 65.8208 15.5656 65.3703 15.1235C64.9113 14.673 64.3077 14.452 63.5427 14.452C62.8882 14.452 62.3187 14.6135 61.8511 14.945C61.3751 15.2765 61.0776 15.7526 60.9586 16.3816H59.2331C59.3011 15.6591 59.5476 15.047 59.9641 14.554C60.3891 14.061 60.9076 13.6785 61.5366 13.4235C62.1657 13.16 62.8372 13.0325 63.5427 13.0325C64.9368 13.0325 65.9823 13.4065 66.6793 14.146C67.3848 14.8855 67.7333 15.8716 67.7333 17.1041V23.2243H66.2288L66.1268 21.4393C65.8463 22.0003 65.4383 22.4763 64.8943 22.8758C64.3587 23.2583 63.6277 23.4538 62.7182 23.4538ZM62.9817 22.0258C63.6277 22.0258 64.1717 21.8558 64.6392 21.5243C65.0983 21.1928 65.4553 20.7592 65.6933 20.2237C65.9313 19.6882 66.0503 19.1272 66.0503 18.5407V18.5237H63.5002C62.5142 18.5237 61.8086 18.6937 61.4006 19.0337C60.9926 19.3737 60.7886 19.7987 60.7886 20.3087C60.7886 20.8272 60.9756 21.2523 61.3581 21.5668C61.7491 21.8728 62.2847 22.0258 62.9817 22.0258Z" fill="white"/>
<path d="M69.2634 23.2158V8.76526H70.9465V23.2073H69.2634V23.2158Z" fill="white"/>
<path d="M77.5087 23.4537C76.4886 23.4537 75.5961 23.2327 74.8226 22.7907C74.0491 22.3487 73.437 21.7367 72.9865 20.9462C72.536 20.1556 72.315 19.2546 72.315 18.2346C72.315 17.2145 72.536 16.3135 72.9865 15.523C73.437 14.7324 74.0491 14.1204 74.8226 13.6784C75.5961 13.2364 76.4971 13.0154 77.5087 13.0154C78.7752 13.0154 79.8463 13.3469 80.7218 14.0099C81.5888 14.6729 82.1498 15.5825 82.3878 16.747H79.6763C79.5402 16.2625 79.2767 15.8885 78.8857 15.6165C78.4947 15.3445 78.0272 15.2085 77.4917 15.2085C76.7862 15.2085 76.1826 15.472 75.6896 16.0075C75.1966 16.543 74.9501 17.2825 74.9501 18.2346C74.9501 19.1866 75.1966 19.9261 75.6896 20.4616C76.1826 20.9972 76.7862 21.2607 77.4917 21.2607C78.0272 21.2607 78.4947 21.1247 78.8857 20.8612C79.2767 20.5976 79.5402 20.2151 79.6763 19.7136H82.3878C82.1498 20.8356 81.5888 21.7367 80.7218 22.4252C79.8463 23.1137 78.7752 23.4537 77.5087 23.4537Z" fill="white"/>
<path d="M88.44 23.4537C87.4795 23.4537 86.6125 23.2327 85.839 22.7907C85.0739 22.3487 84.4619 21.7367 84.0114 20.9547C83.5609 20.1726 83.3399 19.2631 83.3399 18.2346C83.3399 17.206 83.5694 16.2965 84.0199 15.5145C84.4704 14.7324 85.0824 14.1204 85.856 13.6784C86.621 13.2364 87.488 13.0154 88.457 13.0154C89.4091 13.0154 90.2676 13.2364 91.0326 13.6784C91.7977 14.1204 92.4097 14.7324 92.8602 15.5145C93.3107 16.2965 93.5317 17.206 93.5317 18.2346C93.5317 19.2631 93.3107 20.1726 92.8602 20.9547C92.4097 21.7367 91.7977 22.3487 91.0241 22.7907C90.2506 23.2327 89.3921 23.4537 88.44 23.4537ZM88.44 21.2267C89.1116 21.2267 89.6896 20.9717 90.1826 20.4701C90.6756 19.9686 90.9221 19.2206 90.9221 18.2346C90.9221 17.2485 90.6756 16.5005 90.1826 15.999C89.6896 15.4975 89.1116 15.2425 88.457 15.2425C87.777 15.2425 87.1905 15.4975 86.6975 15.999C86.213 16.5005 85.9665 17.2485 85.9665 18.2346C85.9665 19.2206 86.213 19.9686 86.6975 20.4701C87.1905 20.9717 87.7685 21.2267 88.44 21.2267Z" fill="white"/>
<path d="M94.8238 23.2157V13.2619H97.0934L97.3144 14.6049C97.6374 14.1204 98.0624 13.7379 98.5894 13.4489C99.1164 13.1599 99.7285 13.0154 100.425 13.0154C101.964 13.0154 103.052 13.6104 103.698 14.8004C104.055 14.2564 104.54 13.8144 105.152 13.4999C105.764 13.1769 106.427 13.0154 107.149 13.0154C108.45 13.0154 109.444 13.4064 110.141 14.1799C110.838 14.9534 111.187 16.0925 111.187 17.5885V23.2072H108.62V17.8265C108.62 16.968 108.458 16.3135 108.127 15.863C107.795 15.4125 107.294 15.183 106.614 15.183C105.917 15.183 105.356 15.438 104.939 15.948C104.514 16.458 104.31 17.1635 104.31 18.0731V23.2072H101.743V17.8265C101.743 16.968 101.573 16.3135 101.242 15.863C100.91 15.4125 100.391 15.183 99.6945 15.183C99.0144 15.183 98.4619 15.438 98.0369 15.948C97.6119 16.458 97.4079 17.1635 97.4079 18.0731V23.2072H94.8238V23.2157Z" fill="white"/>
<path d="M112.615 27.6274V13.2619H114.901L115.182 14.69C115.505 14.248 115.93 13.857 116.457 13.5254C116.984 13.1939 117.673 13.0239 118.514 13.0239C119.449 13.0239 120.282 13.2534 121.022 13.7039C121.761 14.163 122.339 14.7835 122.764 15.574C123.189 16.3645 123.41 17.2571 123.41 18.2601C123.41 19.2631 123.198 20.1557 122.764 20.9377C122.339 21.7197 121.753 22.3317 121.022 22.7823C120.282 23.2328 119.449 23.4538 118.514 23.4538C117.766 23.4538 117.112 23.3093 116.551 23.0288C115.99 22.7483 115.531 22.3572 115.191 21.8472V27.6274H112.615ZM117.97 21.2097C118.786 21.2097 119.458 20.9377 119.993 20.3852C120.529 19.8412 120.792 19.1271 120.792 18.2601C120.792 17.3931 120.529 16.6791 119.993 16.1095C119.458 15.5485 118.786 15.268 117.97 15.268C117.137 15.268 116.466 15.5485 115.93 16.101C115.403 16.6536 115.14 17.3676 115.14 18.2346C115.14 19.1016 115.403 19.8157 115.93 20.3682C116.466 20.9292 117.146 21.2097 117.97 21.2097Z" fill="white"/>
<path d="M128.128 23.4538C127.269 23.4538 126.572 23.3178 126.02 23.0458C125.467 22.7738 125.059 22.4083 124.796 21.9493C124.532 21.4988 124.396 20.9972 124.396 20.4447C124.396 19.5182 124.753 18.7702 125.476 18.2006C126.198 17.6226 127.278 17.3421 128.723 17.3421H131.248V17.1041C131.248 16.4241 131.052 15.9226 130.67 15.5996C130.278 15.2765 129.802 15.115 129.224 15.115C128.706 15.115 128.247 15.2425 127.864 15.4891C127.473 15.7356 127.235 16.1011 127.142 16.5856H124.634C124.702 15.8631 124.949 15.234 125.365 14.6985C125.79 14.163 126.334 13.755 126.997 13.466C127.669 13.177 128.417 13.0325 129.241 13.0325C130.661 13.0325 131.775 13.3895 132.591 14.095C133.407 14.8005 133.815 15.8036 133.815 17.1041V23.2243H131.63L131.392 21.6178C131.095 22.1533 130.687 22.5953 130.159 22.9438C129.632 23.2753 128.952 23.4538 128.128 23.4538ZM128.706 21.4478C129.445 21.4478 130.015 21.2098 130.423 20.7252C130.831 20.2407 131.086 19.6457 131.197 18.9402H129.012C128.332 18.9402 127.839 19.0677 127.55 19.3142C127.252 19.5607 127.108 19.8667 127.108 20.2237C127.108 20.6147 127.252 20.9122 127.55 21.1247C127.839 21.3373 128.221 21.4478 128.706 21.4478Z" fill="white"/>
<path d="M139.382 23.4538C138.498 23.4538 137.725 23.3093 137.053 23.0203C136.382 22.7313 135.846 22.3317 135.447 21.8302C135.047 21.3202 134.801 20.7337 134.724 20.0622H137.308C137.385 20.4532 137.606 20.7847 137.963 21.0567C138.32 21.3287 138.779 21.4647 139.34 21.4647C139.901 21.4647 140.309 21.3542 140.572 21.1247C140.836 20.8952 140.963 20.6402 140.963 20.3427C140.963 19.9177 140.776 19.6202 140.402 19.4671C140.028 19.3141 139.51 19.1611 138.838 19.0166C138.413 18.9231 137.98 18.8126 137.538 18.6766C137.096 18.5406 136.688 18.3706 136.322 18.1666C135.957 17.9626 135.659 17.6906 135.43 17.3676C135.2 17.0361 135.09 16.6366 135.09 16.152C135.09 15.268 135.438 14.5285 136.144 13.925C136.849 13.3214 137.835 13.0239 139.102 13.0239C140.275 13.0239 141.218 13.2959 141.924 13.8485C142.629 14.401 143.046 15.149 143.182 16.118H140.751C140.606 15.3785 140.045 15.013 139.085 15.013C138.6 15.013 138.235 15.1065 137.971 15.2935C137.708 15.4805 137.58 15.7185 137.58 15.999C137.58 16.2965 137.776 16.526 138.158 16.7046C138.549 16.8746 139.059 17.0361 139.705 17.1891C140.402 17.3506 141.04 17.5291 141.618 17.7246C142.196 17.9201 142.663 18.2091 143.012 18.5831C143.36 18.9656 143.53 19.5096 143.53 20.2152C143.547 20.8272 143.386 21.3882 143.046 21.8812C142.714 22.3742 142.23 22.7653 141.601 23.0458C140.98 23.3093 140.232 23.4538 139.382 23.4538Z" fill="white"/>
<path d="M148.911 23.4538C148.027 23.4538 147.254 23.3093 146.582 23.0203C145.911 22.7313 145.375 22.3317 144.976 21.8302C144.576 21.3202 144.329 20.7337 144.253 20.0622H146.837C146.914 20.4532 147.135 20.7847 147.492 21.0567C147.849 21.3287 148.308 21.4647 148.869 21.4647C149.43 21.4647 149.838 21.3542 150.101 21.1247C150.365 20.8952 150.492 20.6402 150.492 20.3427C150.492 19.9177 150.305 19.6202 149.931 19.4671C149.557 19.3141 149.039 19.1611 148.367 19.0166C147.942 18.9231 147.509 18.8126 147.067 18.6766C146.625 18.5406 146.217 18.3706 145.851 18.1666C145.486 17.9626 145.188 17.6906 144.959 17.3676C144.729 17.0361 144.619 16.6366 144.619 16.152C144.619 15.268 144.967 14.5285 145.673 13.925C146.378 13.3214 147.364 13.0239 148.631 13.0239C149.804 13.0239 150.747 13.2959 151.453 13.8485C152.158 14.401 152.575 15.149 152.711 16.118H150.28C150.135 15.3785 149.574 15.013 148.614 15.013C148.129 15.013 147.764 15.1065 147.5 15.2935C147.237 15.4805 147.109 15.7185 147.109 15.999C147.109 16.2965 147.305 16.526 147.687 16.7046C148.078 16.8746 148.588 17.0361 149.234 17.1891C149.931 17.3506 150.569 17.5291 151.147 17.7246C151.725 17.9201 152.192 18.2091 152.541 18.5831C152.889 18.9656 153.059 19.5096 153.059 20.2152C153.076 20.8272 152.915 21.3882 152.575 21.8812C152.243 22.3742 151.759 22.7653 151.13 23.0458C150.509 23.3093 149.761 23.4538 148.911 23.4538Z" fill="white"/>
<path d="M14.6235 19.9772L11.2149 16.5685L12.2944 15.489L14.6235 17.8181L19.7917 12.6499L20.8712 13.7294L14.6235 19.9772Z" fill="white"/>
<path d="M16.7656 3.67358H15.2356V6.64869H16.7656V3.67358Z" fill="white"/>
<path d="M16.7656 25.3492H15.2356V28.3243H16.7656V25.3492Z" fill="white"/>
<path d="M28.326 15.2339H25.3509V16.7639H28.326V15.2339Z" fill="white"/>
<path d="M6.65027 15.2339H3.67517V16.7639H6.65027V15.2339Z" fill="white"/>
<path d="M24.1801 6.7453L22.0764 8.849L23.1583 9.9309L25.262 7.8272L24.1801 6.7453Z" fill="white"/>
<path d="M8.85296 22.0706L6.74927 24.1743L7.83117 25.2562L9.93487 23.1525L8.85296 22.0706Z" fill="white"/>
<path d="M23.1575 22.0714L22.0756 23.1533L24.1793 25.257L25.2612 24.1751L23.1575 22.0714Z" fill="white"/>
<path d="M7.83202 6.74439L6.75012 7.82629L8.85382 9.92999L9.93572 8.84809L7.83202 6.74439Z" fill="white"/>
<path d="M0.587809 8.78939L0.0022583 10.203L7.07034 13.1308L7.65589 11.7171L0.587809 8.78939Z" fill="white"/>
<path d="M24.9308 18.8722L24.3453 20.2858L31.4134 23.2135L31.9989 21.7999L24.9308 18.8722Z" fill="white"/>
<path d="M11.7163 24.3453L8.78851 31.4133L10.2021 31.9989L13.1299 24.9308L11.7163 24.3453Z" fill="white"/>
<path d="M21.7985 0.00284362L18.8707 7.07092L20.2843 7.65647L23.2121 0.588395L21.7985 0.00284362Z" fill="white"/>
<path d="M7.06808 18.8706L0 21.7983L0.585551 23.212L7.65363 20.2842L7.06808 18.8706Z" fill="white"/>
<path d="M31.4151 8.78928L24.347 11.717L24.9325 13.1307L32.0006 10.2029L31.4151 8.78928Z" fill="white"/>
<path d="M20.2844 24.3463L18.8708 24.9319L21.7985 32L23.2122 31.4144L20.2844 24.3463Z" fill="white"/>
<path d="M10.2025 2.03236e-05L8.78888 0.585571L11.7166 7.65365L13.1302 7.0681L10.2025 2.03236e-05Z" fill="white"/>
</svg>
