<svg width="158" height="32" viewBox="0 0 158 32" fill="none" xmlns="http://www.w3.org/2000/svg">
<path d="M14.6235 19.9771L11.2149 16.5685L12.2944 15.489L14.6235 17.818L19.7917 12.6499L20.8712 13.7294L14.6235 19.9771Z" fill="white"/>
<path d="M16.7656 3.67354H15.2356V6.64864H16.7656V3.67354Z" fill="white"/>
<path d="M16.7656 25.3493H15.2356V28.3244H16.7656V25.3493Z" fill="white"/>
<path d="M28.326 15.2339H25.3509V16.764H28.326V15.2339Z" fill="white"/>
<path d="M6.65027 15.2339H3.67517V16.764H6.65027V15.2339Z" fill="white"/>
<path d="M24.1801 6.74525L22.0764 8.84894L23.1583 9.93084L25.262 7.82715L24.1801 6.74525Z" fill="white"/>
<path d="M8.85297 22.0706L6.74927 24.1743L7.83117 25.2562L9.93487 23.1525L8.85297 22.0706Z" fill="white"/>
<path d="M23.1574 22.0715L22.0755 23.1534L24.1792 25.2571L25.2611 24.1752L23.1574 22.0715Z" fill="white"/>
<path d="M7.83206 6.74438L6.75016 7.82628L8.85385 9.92998L9.93575 8.84808L7.83206 6.74438Z" fill="white"/>
<path d="M0.587823 8.78938L0.00227227 10.203L7.07035 13.1307L7.6559 11.7171L0.587823 8.78938Z" fill="white"/>
<path d="M24.9308 18.8722L24.3452 20.2858L31.4133 23.2135L31.9988 21.7999L24.9308 18.8722Z" fill="white"/>
<path d="M11.7163 24.3452L8.78851 31.4133L10.2021 31.9988L13.1299 24.9308L11.7163 24.3452Z" fill="white"/>
<path d="M21.7985 0.00279853L18.8707 7.07087L20.2843 7.65642L23.2121 0.588349L21.7985 0.00279853Z" fill="white"/>
<path d="M7.06807 18.8706L0 21.7984L0.585551 23.212L7.65363 20.2842L7.06807 18.8706Z" fill="white"/>
<path d="M31.415 8.78929L24.3469 11.717L24.9325 13.1307L32.0006 10.2029L31.415 8.78929Z" fill="white"/>
<path d="M20.2844 24.3464L18.8708 24.9319L21.7986 32L23.2122 31.4144L20.2844 24.3464Z" fill="white"/>
<path d="M10.2025 0L8.7889 0.585551L11.7167 7.65363L13.1303 7.06807L10.2025 0Z" fill="white"/>
<path d="M38.1807 23.2004V8.80016H39.8607V14.9803C40.194 14.3669 40.6674 13.8936 41.2807 13.5602C41.8941 13.2136 42.5607 13.0402 43.2808 13.0402C44.4274 13.0402 45.3475 13.4002 46.0408 14.1203C46.7341 14.8269 47.0808 15.9203 47.0808 17.4003V23.2004H45.4208V17.5803C45.4208 15.5136 44.5874 14.4803 42.9207 14.4803C42.0541 14.4803 41.3274 14.7936 40.7407 15.4203C40.154 16.0336 39.8607 16.9136 39.8607 18.0603V23.2004H38.1807Z" fill="white"/>
<path d="M52.5262 23.4404C51.6996 23.4404 51.0129 23.3004 50.4662 23.0204C49.9195 22.7404 49.5128 22.3671 49.2462 21.9004C48.9795 21.4337 48.8462 20.927 48.8462 20.3804C48.8462 19.367 49.2328 18.587 50.0062 18.0403C50.7795 17.4936 51.8329 17.2203 53.1662 17.2203H55.8463V17.1003C55.8463 16.2336 55.6196 15.5803 55.1663 15.1403C54.7129 14.6869 54.1063 14.4603 53.3462 14.4603C52.6929 14.4603 52.1262 14.6269 51.6462 14.9603C51.1795 15.2803 50.8862 15.7536 50.7662 16.3803H49.0462C49.1128 15.6603 49.3528 15.0536 49.7662 14.5603C50.1929 14.0669 50.7195 13.6936 51.3462 13.4402C51.9729 13.1736 52.6396 13.0402 53.3462 13.0402C54.7329 13.0402 55.773 13.4136 56.4663 14.1603C57.173 14.8936 57.5263 15.8736 57.5263 17.1003V23.2004H56.0263L55.9263 21.4204C55.6463 21.9804 55.2329 22.4604 54.6863 22.8604C54.1529 23.2471 53.4329 23.4404 52.5262 23.4404ZM52.7862 22.0204C53.4262 22.0204 53.9729 21.8537 54.4263 21.5204C54.8929 21.187 55.2463 20.7537 55.4863 20.2204C55.7263 19.687 55.8463 19.127 55.8463 18.5403V18.5203H53.3062C52.3196 18.5203 51.6195 18.6937 51.2062 19.0403C50.8062 19.3737 50.6062 19.7937 50.6062 20.3004C50.6062 20.8204 50.7929 21.2404 51.1662 21.5604C51.5529 21.8671 52.0929 22.0204 52.7862 22.0204Z" fill="white"/>
<path d="M59.6467 23.2004V8.80016H61.3267V23.2004H59.6467Z" fill="white"/>
<path d="M66.9804 23.4404C66.1537 23.4404 65.467 23.3004 64.9204 23.0204C64.3737 22.7404 63.967 22.3671 63.7003 21.9004C63.4337 21.4337 63.3003 20.927 63.3003 20.3804C63.3003 19.367 63.687 18.587 64.4604 18.0403C65.2337 17.4936 66.287 17.2203 67.6204 17.2203H70.3004V17.1003C70.3004 16.2336 70.0738 15.5803 69.6204 15.1403C69.1671 14.6869 68.5604 14.4603 67.8004 14.4603C67.1471 14.4603 66.5804 14.6269 66.1004 14.9603C65.6337 15.2803 65.3404 15.7536 65.2204 16.3803H63.5003C63.567 15.6603 63.807 15.0536 64.2203 14.5603C64.647 14.0669 65.1737 13.6936 65.8004 13.4402C66.427 13.1736 67.0937 13.0402 67.8004 13.0402C69.1871 13.0402 70.2271 13.4136 70.9205 14.1603C71.6271 14.8936 71.9805 15.8736 71.9805 17.1003V23.2004H70.4804L70.3804 21.4204C70.1004 21.9804 69.6871 22.4604 69.1404 22.8604C68.6071 23.2471 67.8871 23.4404 66.9804 23.4404ZM67.2404 22.0204C67.8804 22.0204 68.4271 21.8537 68.8804 21.5204C69.3471 21.187 69.7004 20.7537 69.9404 20.2204C70.1804 19.687 70.3004 19.127 70.3004 18.5403V18.5203H67.7604C66.7737 18.5203 66.0737 18.6937 65.6604 19.0403C65.2604 19.3737 65.0604 19.7937 65.0604 20.3004C65.0604 20.8204 65.247 21.2404 65.6204 21.5604C66.007 21.8671 66.547 22.0204 67.2404 22.0204Z" fill="white"/>
<path d="M74.1008 23.2004V8.80016H75.7809V23.2004H74.1008Z" fill="white"/>
<path d="M78.0545 23.2004V8.80016H80.6145V17.3003L84.1346 13.2802H87.1746L83.1146 17.8003L87.8347 23.2004H84.6346L80.6145 18.2203V23.2004H78.0545Z" fill="white"/>
<path d="M92.5616 23.4404C91.6016 23.4404 90.7349 23.2204 89.9616 22.7804C89.2016 22.3404 88.5949 21.7337 88.1415 20.9604C87.7015 20.1737 87.4815 19.267 87.4815 18.2403C87.4815 17.2136 87.7082 16.3136 88.1615 15.5403C88.6149 14.7536 89.2216 14.1403 89.9816 13.7002C90.7549 13.2602 91.6216 13.0402 92.5816 13.0402C93.5283 13.0402 94.3816 13.2602 95.1417 13.7002C95.915 14.1403 96.5217 14.7536 96.9617 15.5403C97.415 16.3136 97.6417 17.2136 97.6417 18.2403C97.6417 19.267 97.415 20.1737 96.9617 20.9604C96.5217 21.7337 95.915 22.3404 95.1417 22.7804C94.3683 23.2204 93.5083 23.4404 92.5616 23.4404ZM92.5616 21.2204C93.2283 21.2204 93.8083 20.9737 94.3016 20.4804C94.795 19.9737 95.0417 19.227 95.0417 18.2403C95.0417 17.2536 94.795 16.5136 94.3016 16.0203C93.8083 15.5136 93.235 15.2603 92.5816 15.2603C91.9016 15.2603 91.3149 15.5136 90.8216 16.0203C90.3416 16.5136 90.1016 17.2536 90.1016 18.2403C90.1016 19.227 90.3416 19.9737 90.8216 20.4804C91.3149 20.9737 91.8949 21.2204 92.5616 21.2204Z" fill="white"/>
<path d="M99.1306 23.2004V13.2802H101.391L101.611 14.6203C101.931 14.1403 102.351 13.7603 102.871 13.4802C103.404 13.1869 104.017 13.0402 104.711 13.0402C106.244 13.0402 107.331 13.6336 107.971 14.8203C108.331 14.2736 108.811 13.8403 109.411 13.5202C110.024 13.2002 110.691 13.0402 111.411 13.0402C112.704 13.0402 113.698 13.4269 114.391 14.2003C115.084 14.9736 115.431 16.107 115.431 17.6003V23.2004H112.871V17.8403C112.871 16.987 112.704 16.3336 112.371 15.8803C112.051 15.4269 111.551 15.2003 110.871 15.2003C110.178 15.2003 109.617 15.4536 109.191 15.9603C108.777 16.467 108.571 17.1736 108.571 18.0803V23.2004H106.011V17.8403C106.011 16.987 105.844 16.3336 105.511 15.8803C105.177 15.4269 104.664 15.2003 103.971 15.2003C103.291 15.2003 102.737 15.4536 102.311 15.9603C101.897 16.467 101.691 17.1736 101.691 18.0803V23.2004H99.1306Z" fill="white"/>
<path d="M117.061 27.6005V13.2802H119.341L119.621 14.7003C119.941 14.2603 120.361 13.8736 120.881 13.5402C121.415 13.2069 122.102 13.0402 122.942 13.0402C123.875 13.0402 124.708 13.2669 125.442 13.7202C126.175 14.1736 126.755 14.7936 127.182 15.5803C127.608 16.367 127.822 17.2603 127.822 18.2603C127.822 19.2603 127.608 20.1537 127.182 20.9404C126.755 21.7137 126.175 22.3271 125.442 22.7804C124.708 23.2204 123.875 23.4404 122.942 23.4404C122.195 23.4404 121.541 23.3004 120.981 23.0204C120.421 22.7404 119.968 22.3471 119.621 21.8404V27.6005H117.061ZM122.402 21.2004C123.215 21.2004 123.888 20.927 124.422 20.3804C124.955 19.8337 125.222 19.127 125.222 18.2603C125.222 17.3936 124.955 16.6803 124.422 16.1203C123.888 15.5603 123.215 15.2803 122.402 15.2803C121.575 15.2803 120.895 15.5603 120.361 16.1203C119.841 16.667 119.581 17.3736 119.581 18.2403C119.581 19.107 119.841 19.8204 120.361 20.3804C120.895 20.927 121.575 21.2004 122.402 21.2004Z" fill="white"/>
<path d="M132.729 23.4404C131.875 23.4404 131.175 23.3071 130.629 23.0404C130.082 22.7604 129.675 22.3937 129.408 21.9404C129.142 21.487 129.008 20.987 129.008 20.4404C129.008 19.5203 129.368 18.7737 130.089 18.2003C130.809 17.627 131.889 17.3403 133.329 17.3403H135.849V17.1003C135.849 16.4203 135.655 15.9203 135.269 15.6003C134.882 15.2803 134.402 15.1203 133.829 15.1203C133.309 15.1203 132.855 15.2469 132.469 15.5003C132.082 15.7403 131.842 16.1003 131.749 16.5803H129.249C129.315 15.8603 129.555 15.2336 129.969 14.7003C130.395 14.1669 130.942 13.7603 131.609 13.4802C132.275 13.1869 133.022 13.0402 133.849 13.0402C135.262 13.0402 136.375 13.3936 137.189 14.1003C138.002 14.8069 138.409 15.807 138.409 17.1003V23.2004H136.229L135.989 21.6004C135.695 22.1337 135.282 22.5737 134.749 22.9204C134.229 23.2671 133.555 23.4404 132.729 23.4404ZM133.309 21.4404C134.042 21.4404 134.609 21.2004 135.009 20.7204C135.422 20.2404 135.682 19.647 135.789 18.9403H133.609C132.929 18.9403 132.442 19.067 132.149 19.3203C131.855 19.5604 131.709 19.8604 131.709 20.2204C131.709 20.607 131.855 20.907 132.149 21.1204C132.442 21.3337 132.829 21.4404 133.309 21.4404Z" fill="white"/>
<path d="M144.152 23.4404C143.272 23.4404 142.498 23.3004 141.832 23.0204C141.165 22.7271 140.632 22.3271 140.232 21.8204C139.832 21.3137 139.592 20.727 139.512 20.0604H142.092C142.172 20.447 142.385 20.7804 142.732 21.0604C143.092 21.327 143.552 21.4604 144.112 21.4604C144.672 21.4604 145.078 21.347 145.332 21.1204C145.598 20.8937 145.732 20.6337 145.732 20.3404C145.732 19.9137 145.545 19.627 145.172 19.4803C144.798 19.3203 144.278 19.167 143.612 19.0203C143.185 18.927 142.752 18.8137 142.312 18.6803C141.872 18.547 141.465 18.3803 141.092 18.1803C140.732 17.967 140.438 17.7003 140.212 17.3803C139.985 17.047 139.872 16.6403 139.872 16.1603C139.872 15.2803 140.218 14.5403 140.912 13.9403C141.618 13.3402 142.605 13.0402 143.872 13.0402C145.045 13.0402 145.978 13.3136 146.672 13.8603C147.378 14.4069 147.798 15.1603 147.932 16.1203H145.512C145.365 15.3869 144.812 15.0203 143.852 15.0203C143.372 15.0203 142.998 15.1136 142.732 15.3003C142.478 15.4869 142.352 15.7203 142.352 16.0003C142.352 16.2936 142.545 16.527 142.932 16.7003C143.318 16.8736 143.832 17.0336 144.472 17.1803C145.165 17.3403 145.798 17.5203 146.372 17.7203C146.958 17.907 147.425 18.1937 147.772 18.5803C148.118 18.9537 148.292 19.4937 148.292 20.2004C148.305 20.8137 148.145 21.367 147.812 21.8604C147.478 22.3537 146.998 22.7404 146.372 23.0204C145.745 23.3004 145.005 23.4404 144.152 23.4404Z" fill="white"/>
<path d="M153.86 23.4404C152.98 23.4404 152.206 23.3004 151.54 23.0204C150.873 22.7271 150.34 22.3271 149.94 21.8204C149.54 21.3137 149.3 20.727 149.22 20.0604H151.8C151.88 20.447 152.093 20.7804 152.44 21.0604C152.8 21.327 153.26 21.4604 153.82 21.4604C154.38 21.4604 154.786 21.347 155.04 21.1204C155.306 20.8937 155.44 20.6337 155.44 20.3404C155.44 19.9137 155.253 19.627 154.88 19.4803C154.506 19.3203 153.986 19.167 153.32 19.0203C152.893 18.927 152.46 18.8137 152.02 18.6803C151.58 18.547 151.173 18.3803 150.8 18.1803C150.44 17.967 150.146 17.7003 149.92 17.3803C149.693 17.047 149.58 16.6403 149.58 16.1603C149.58 15.2803 149.926 14.5403 150.62 13.9403C151.326 13.3402 152.313 13.0402 153.58 13.0402C154.753 13.0402 155.686 13.3136 156.38 13.8603C157.086 14.4069 157.506 15.1603 157.64 16.1203H155.22C155.073 15.3869 154.52 15.0203 153.56 15.0203C153.08 15.0203 152.706 15.1136 152.44 15.3003C152.186 15.4869 152.06 15.7203 152.06 16.0003C152.06 16.2936 152.253 16.527 152.64 16.7003C153.026 16.8736 153.54 17.0336 154.18 17.1803C154.873 17.3403 155.506 17.5203 156.08 17.7203C156.666 17.907 157.133 18.1937 157.48 18.5803C157.826 18.9537 158 19.4937 158 20.2004C158.013 20.8137 157.853 21.367 157.52 21.8604C157.186 22.3537 156.706 22.7404 156.08 23.0204C155.453 23.3004 154.713 23.4404 153.86 23.4404Z" fill="white"/>
</svg>
